<svg width="273" height="278" viewBox="0 0 273 278" fill="none" xmlns="http://www.w3.org/2000/svg">
<path opacity="0.1" d="M243.186 118.683C233.295 135.196 234.865 157.53 238.931 175.102C240.292 180.985 241.867 187.195 240.573 193.812C238.991 201.904 233.48 208.307 227.934 211.995C217.824 218.716 206.366 218.665 198.103 211.86C190.963 205.98 186.334 195.636 179.038 190.077C166.828 180.774 149.882 186.698 135.113 195.697C124.664 202.064 113.155 210.112 103.618 205.745C96.9077 202.672 92.8008 193.826 90.9455 184.17C90.0497 179.508 89.535 174.411 87.4 170.875C86.1308 168.773 84.3678 167.377 82.5388 166.239C65.8372 155.842 42.9835 164.965 26.8962 153.16C16.0314 145.188 9.98915 128.535 8.14325 110.671C6.29736 92.8078 8.19188 73.6485 10.5112 54.7798C12.1594 41.3707 14.35 27.0069 21.2042 16.0337C28.455 4.42557 39.7409 -0.851156 49.4885 0.111312C59.2362 1.07378 67.6365 7.44919 74.8528 15.2577C83.8716 25.0167 91.9627 37.52 103.742 40.5646C111.765 42.638 120.582 40.0274 129.145 38.5074C143.461 35.9663 157.54 36.484 171.519 37.2116C184.902 37.9082 198.365 38.8163 210.788 43.5977C219.58 46.9813 226.275 54.159 234.464 58.7809C239.802 61.7936 245.857 62.1133 250.816 66.1562C256.926 71.1364 262.155 80.4021 259.555 92.2194C257.082 103.455 248.436 109.918 243.186 118.683Z" fill="#EB9819"/>
<g clip-path="url(#clip0)">
<path d="M136.1 90.3846C136.335 89.2445 136.452 88.0838 136.452 86.9201C136.452 80.0733 132.498 75.0783 126.658 72.3259C127.173 71.261 127.376 70.5784 127.376 69.3186C127.376 64.8229 123.402 61.2636 118.879 61.2636C114.356 61.2636 110.875 64.8208 110.875 69.3186C110.875 70.5826 110.981 70.0665 111.338 72.445C105.499 75.1963 101.919 80.0702 101.919 86.9201C101.919 87.154 101.926 87.3857 101.934 87.6164C101.898 87.7396 101.905 87.8713 101.953 87.9903C102.002 88.7948 102.109 89.5949 102.271 90.3846C97.6856 95.2627 94.8321 102.109 94.8321 109.694C94.8321 124.516 105.734 136.005 119.183 136.005C132.633 136.005 143.536 124.511 143.536 109.694C143.536 102.109 140.684 95.2627 136.1 90.3846Z" fill="url(#paint0_linear)"/>
<path d="M135.207 90.7933C135.943 87.226 135.454 83.5165 133.818 80.258C132.182 76.9996 129.494 74.3802 126.184 72.8189C126.75 71.6437 127.008 70.3448 126.933 69.0437C126.858 67.7426 126.452 66.4818 125.753 65.3789C125.054 64.2761 124.085 63.3672 122.937 62.7374C121.789 62.1075 120.499 61.7771 119.188 61.7771C117.876 61.7771 116.586 62.1075 115.438 62.7374C114.29 63.3672 113.321 64.2761 112.622 65.3789C111.924 66.4818 111.518 67.7426 111.442 69.0437C111.367 70.3448 111.625 71.6437 112.192 72.8189C109.392 74.1362 107.026 76.2165 105.37 78.8177C103.714 81.4188 102.835 84.4339 102.835 87.5121C102.835 87.7333 102.84 87.9524 102.85 88.1715C102.816 88.2881 102.822 88.4128 102.868 88.5254C102.915 89.2875 103.015 90.0453 103.169 90.7933C98.823 95.4164 96.1253 101.899 96.1253 109.078C96.1253 123.119 106.452 134.5 119.191 134.5C131.93 134.5 142.256 123.119 142.256 109.078C142.251 101.899 139.549 95.4164 135.207 90.7933Z" fill="white"/>
<path d="M115.75 67.7807C116.156 67.7807 116.486 67.4534 116.486 67.0497C116.486 66.6459 116.156 66.3186 115.75 66.3186C115.344 66.3186 115.014 66.6459 115.014 67.0497C115.014 67.4534 115.344 67.7807 115.75 67.7807Z" fill="#263238"/>
<path d="M121.639 67.7807C122.046 67.7807 122.375 67.4534 122.375 67.0497C122.375 66.6459 122.046 66.3186 121.639 66.3186C121.233 66.3186 120.904 66.6459 120.904 67.0497C120.904 67.4534 121.233 67.7807 121.639 67.7807Z" fill="#263238"/>
<path d="M112.192 72.7799C112.192 72.7799 117.59 78.8757 118.326 82.8995L120.908 81.8019L117.228 75.2184C117.228 75.2184 123.239 75.5839 126.184 72.7799H112.192Z" fill="#615C9A"/>
<path d="M118.081 69.386V76.0527C118.081 76.187 118.135 76.3159 118.23 76.4109C118.326 76.506 118.456 76.5593 118.591 76.5593C118.719 76.5595 118.843 76.5115 118.937 76.425C119.031 76.3385 119.089 76.2198 119.1 76.0927L119.63 69.426C119.635 69.3563 119.626 69.2862 119.603 69.2201C119.58 69.154 119.543 69.0933 119.496 69.042C119.448 68.9906 119.39 68.9497 119.325 68.9217C119.261 68.8937 119.191 68.8793 119.121 68.8793H118.591C118.456 68.8793 118.326 68.9327 118.23 69.0277C118.135 69.1227 118.081 69.2516 118.081 69.386Z" fill="#FF6E40"/>
<path d="M124.3 61.9935V57.9255C124.3 57.6232 124.224 57.3257 124.08 57.0597C123.935 56.7937 123.726 56.5676 123.472 56.4016C123.218 56.2356 122.926 56.1351 122.623 56.1089C122.32 56.0827 122.015 56.1318 121.736 56.2517C120.01 56.9891 118.488 56.7141 117.329 56.178C117.063 56.0506 116.769 55.989 116.474 55.9982C116.178 56.0074 115.889 56.0873 115.631 56.231C115.373 56.3747 115.153 56.5781 114.991 56.8239C114.829 57.0697 114.728 57.3507 114.699 57.6432L114.229 61.9946H112.672V65.0124H125.816V61.9935H124.3Z" fill="url(#paint1_linear)"/>
<path d="M125.566 62.2948H112.928V64.6112H125.566V62.2948Z" fill="#615C9A"/>
<path d="M117.495 56.5614C118.118 56.8636 118.801 57.0262 119.495 57.0379C120.189 57.0495 120.877 56.9099 121.51 56.6289C121.764 56.5205 122.042 56.4765 122.317 56.5008C122.593 56.5251 122.858 56.6169 123.089 56.768C123.32 56.9192 123.51 57.1249 123.641 57.3668C123.773 57.6087 123.842 57.8792 123.842 58.1541V62.5392H114.646L115.098 57.8971C115.125 57.6307 115.217 57.3747 115.365 57.1507C115.512 56.9268 115.712 56.7415 115.947 56.6105C116.182 56.4795 116.446 56.4067 116.715 56.3981C116.984 56.3896 117.252 56.4456 117.495 56.5614Z" fill="#615C9A"/>
<path d="M118.818 87.6543C119.292 87.6543 119.676 87.2723 119.676 86.8011C119.676 86.3299 119.292 85.9479 118.818 85.9479C118.343 85.9479 117.959 86.3299 117.959 86.8011C117.959 87.2723 118.343 87.6543 118.818 87.6543Z" fill="#263238"/>
<path d="M118.818 90.4583C119.292 90.4583 119.676 90.0763 119.676 89.6051C119.676 89.1339 119.292 88.7519 118.818 88.7519C118.343 88.7519 117.959 89.1339 117.959 89.6051C117.959 90.0763 118.343 90.4583 118.818 90.4583Z" fill="#263238"/>
<path d="M118.818 93.2623C119.292 93.2623 119.676 92.8803 119.676 92.4091C119.676 91.9379 119.292 91.5559 118.818 91.5559C118.343 91.5559 117.959 91.9379 117.959 92.4091C117.959 92.8803 118.343 93.2623 118.818 93.2623Z" fill="#263238"/>
<path d="M118.818 96.0664C119.292 96.0664 119.676 95.6844 119.676 95.2132C119.676 94.7419 119.292 94.3599 118.818 94.3599C118.343 94.3599 117.959 94.7419 117.959 95.2132C117.959 95.6844 118.343 96.0664 118.818 96.0664Z" fill="#263238"/>
<path d="M105.313 79.4491C103.045 78.6912 100.954 77.4867 99.1649 75.9074C97.3759 74.3281 95.9257 72.4065 94.901 70.2576C97.3867 70.1522 99.2968 68.2667 100.257 66.0768C101.51 63.2085 101.877 59.8705 102.519 56.8315C102.689 56.0278 101.448 55.6844 101.278 56.4913C100.73 59.0899 100.324 61.7728 99.5417 64.3135C98.8452 66.5782 97.2701 69.0199 94.6021 68.983C94.521 68.9819 94.4405 68.9958 94.3646 69.0241C93.2629 66.2152 92.891 63.1758 93.2834 60.1865C93.3894 59.3712 92.1015 59.3817 91.9955 60.1865C91.7347 62.1765 91.7977 64.1952 92.1821 66.1653C91.1677 66.0662 90.1497 66.3144 89.2968 66.8689C88.6046 67.3177 89.2512 68.4258 89.9466 67.9739C90.3147 67.7247 90.7309 67.5542 91.1689 67.4733C91.6068 67.3925 92.0569 67.4029 92.4906 67.5041C93.3204 70.551 94.8934 73.3475 97.0703 75.6462C99.2472 77.9449 101.961 79.6747 104.971 80.6826C105.76 80.9459 106.095 79.7093 105.313 79.4491Z" fill="url(#paint2_linear)"/>
<path d="M105.382 79.1137C103.231 78.395 101.248 77.2526 99.5518 75.755C97.8553 74.2573 96.4801 72.4351 95.5084 70.3972C97.8647 70.2919 99.6773 68.5086 100.588 66.4324C101.78 63.7126 102.124 60.5515 102.733 57.6643C102.894 56.9027 101.717 56.5762 101.556 57.342C101.036 59.8058 100.649 62.3507 99.9095 64.7597C99.2491 66.9075 97.7556 69.2227 95.2254 69.1838C95.1483 69.1826 95.0717 69.1959 94.9996 69.2227C93.9549 66.5584 93.6028 63.6755 93.9756 60.8402C94.0816 60.067 92.8552 60.0765 92.7545 60.8402C92.5039 62.7295 92.5612 64.6465 92.9241 66.5177C91.9619 66.4237 90.9962 66.6593 90.1872 67.1855C89.5311 67.6069 90.1437 68.6602 90.8031 68.2336C91.1523 67.9971 91.5472 67.8354 91.9627 67.7587C92.3782 67.682 92.8053 67.692 93.2167 67.7881C94.0043 70.6777 95.4968 73.3298 97.5621 75.5094C99.6273 77.6891 102.202 79.329 105.057 80.284C105.805 80.5336 106.123 79.357 105.382 79.1137Z" fill="#795548"/>
<path d="M148.703 66.7768C147.85 66.2221 146.832 65.9735 145.818 66.0721C146.202 64.1003 146.265 62.0797 146.003 60.0881C145.897 59.2822 144.607 59.2717 144.715 60.0881C145.824 68.5149 140.82 76.6531 132.681 79.3644C131.899 79.6246 132.234 80.8612 133.024 80.5989C136.035 79.5901 138.75 77.859 140.927 75.5589C143.105 73.2587 144.678 70.4605 145.507 67.412C145.941 67.3109 146.391 67.3005 146.829 67.3814C147.267 67.4622 147.683 67.6326 148.051 67.8818C148.75 68.3337 149.396 67.2256 148.703 66.7768Z" fill="url(#paint3_linear)"/>
<path d="M147.803 67.1856C146.994 66.6593 146.029 66.4237 145.066 66.5177C145.431 64.6486 145.49 62.7333 145.242 60.8454C145.142 60.0817 143.919 60.0723 144.021 60.8454C145.073 68.8372 140.329 76.5477 132.614 79.1148C131.872 79.3613 132.19 80.5336 132.938 80.285C135.793 79.3293 138.366 77.6887 140.431 75.5088C142.495 73.3288 143.987 70.6766 144.774 67.787C145.185 67.6909 145.612 67.6809 146.028 67.7576C146.443 67.8343 146.838 67.9961 147.187 68.2326C147.848 68.6613 148.46 67.6111 147.803 67.1856Z" fill="#795548"/>
</g>
<g clip-path="url(#clip1)">
<path d="M43.5646 111.956C43.5646 111.956 65.2643 116 80.9083 94.7692C80.9083 94.7692 67.7876 81.8793 58.704 84.6595C49.6204 87.4397 43.5646 103.868 43.5646 103.868V111.956Z" fill="#EB9819"/>
<path opacity="0.1" d="M43.5646 111.956C43.5646 111.956 65.2643 116 80.9083 94.7692C80.9083 94.7692 67.7876 81.8793 58.704 84.6595C49.6204 87.4397 43.5646 103.868 43.5646 103.868V111.956Z" fill="black"/>
<path d="M53.4052 94.7692L75.6095 140.516L80.9083 137.736L57.947 94.7692H53.4052Z" fill="#504F60"/>
<path d="M80.9083 94.7692C76.8868 94.8094 72.8854 95.3433 68.9936 96.359C63.624 97.7782 58.5185 100.057 53.8745 103.107C47.1602 107.487 43.5646 111.956 43.5646 111.956C27.5548 83.7698 31.1352 32.9228 31.4355 29.0381V29.0356C31.4406 28.9749 31.4431 28.9244 31.4456 28.889C31.4507 28.8308 31.4532 28.803 31.4532 28.803C42.0507 28.803 80.9083 94.7692 80.9083 94.7692Z" fill="#EB9819"/>
<path d="M271.53 149.562L246.936 156.186C246.936 156.186 209.088 156.944 195.967 168.318C182.846 179.691 144.746 178.428 143.736 178.428C142.727 178.428 128.597 166.043 102.86 178.933C77.1234 191.823 46.3402 183.735 46.3402 183.735C46.3402 183.735 14.2953 197.131 5.2117 192.581C-3.87189 188.032 1.67919 181.966 1.67919 181.966C1.67919 181.966 20.351 167.56 5.96866 151.637C-8.41369 135.714 8.49188 135.714 8.49188 135.714H57.137C61.1071 135.751 65.0251 134.807 68.5445 132.966C72.3445 130.932 76.8156 131.581 79.8081 132.438C82.3956 133.175 85.1149 133.322 87.7664 132.868C112.184 128.72 127.764 129.908 134.239 130.813C136.934 131.186 139.662 131.253 142.371 131.013C150.622 130.292 167.745 128.763 177.043 127.656C179.601 127.353 181.567 127.083 182.594 126.868C185.47 126.266 199.05 128.917 212.787 132.463C227.967 136.378 243.341 141.388 244.665 144.307C246.492 148.331 262.593 148.515 271.351 148.311C271.506 148.307 271.657 148.361 271.775 148.462C271.894 148.562 271.971 148.703 271.993 148.857C272.015 149.011 271.98 149.167 271.895 149.297C271.809 149.427 271.68 149.521 271.53 149.562Z" fill="#EED1D7"/>
<path d="M175.781 168.065L169.726 169.329C169.726 169.329 145.755 156.439 142.475 160.735" fill="#CCB2BB"/>
<path d="M169.726 131.164C169.726 131.164 130.868 123.329 114.719 132.681L169.726 131.164Z" fill="#CCB2BB"/>
<path opacity="0.1" d="M140.489 145.244C140.489 145.244 130.774 141.266 131.2 143.539C131.625 145.812 136.589 148.085 136.589 148.085C136.589 148.085 126.803 147.233 127.229 150.642C127.229 150.642 138.433 150.358 138.007 152.915C137.582 155.472 138.007 158.882 139.851 158.172C141.695 157.461 142.829 149.222 147.793 153.199C152.757 157.177 152.048 149.08 145.949 148.369C145.949 148.369 149.211 145.954 148.928 144.818C148.644 143.681 140.489 145.244 140.489 145.244Z" fill="black"/>
<path d="M140.347 144.818C140.347 144.818 130.632 140.84 131.058 143.113C131.483 145.386 136.447 147.659 136.447 147.659C136.447 147.659 126.661 146.807 127.087 150.216C127.087 150.216 138.291 149.932 137.865 152.489C137.44 155.046 137.865 158.456 139.709 157.745C141.553 157.035 142.687 148.795 147.651 152.773C152.615 156.751 151.906 148.653 145.808 147.943C145.808 147.943 149.069 145.528 148.786 144.392C148.502 143.255 140.347 144.818 140.347 144.818Z" fill="#F89898"/>
<path d="M215.901 152.648C215.901 152.648 202.023 148.351 200.761 149.109L215.901 152.648Z" fill="#CCB2BB"/>
<path d="M108.159 156.439C108.159 156.439 126.831 151.131 133.896 155.175L108.159 156.439Z" fill="#CCB2BB"/>
<path d="M139.068 134.829C139.068 134.829 144.115 119.917 154.208 122.95C164.301 125.983 171.87 133.818 171.87 133.818L139.068 136.346V134.829Z" fill="#EED1D7"/>
<path d="M29.3085 151.51C29.3085 151.51 37.1305 154.796 50.2512 153.532C63.3719 152.269 73.7171 160.104 73.7171 160.104" fill="#CCB2BB"/>
<g opacity="0.05">
<path opacity="0.05" d="M61.0771 90.9183C61.1393 90.8139 61.1681 90.693 61.1597 90.5718C61.1227 90.6848 61.0951 90.8007 61.0771 90.9183Z" fill="url(#paint4_linear)"/>
</g>
<g opacity="0.05">
<path opacity="0.05" d="M61.0771 90.7443C61.1393 90.6399 61.1681 90.519 61.1597 90.3978C61.1227 90.5108 61.0951 90.6267 61.0771 90.7443Z" fill="url(#paint5_linear)"/>
</g>
<g opacity="0.05">
<path opacity="0.05" d="M75.9906 134.41C75.4437 134.645 74.141 135.874 72.451 137.638C71.9144 134.098 71.5667 130.905 71.7916 129.577C71.8109 129.379 71.8794 129.188 71.9911 129.023C73.0052 128.954 75.065 131.494 76.7108 133.79C76.2551 134.155 75.9906 134.41 75.9906 134.41Z" fill="url(#paint6_linear)"/>
</g>
<path d="M102.954 149.905C102.954 149.905 111.797 167.451 114.008 168.132C116.219 168.814 117.75 167.791 117.75 167.791C117.75 167.791 136.117 164.384 132.716 168.302C129.314 172.221 99.5527 169.836 99.5527 169.836L92.0698 152.971L102.954 149.905Z" fill="#EF91A3"/>
<path opacity="0.1" d="M77.6141 150.245C77.6141 150.245 91.8997 140.706 95.8113 140.706C95.8113 140.706 101.594 138.832 104.995 151.778C104.995 151.778 93.2603 153.823 93.4303 159.444L91.2195 154.674L81.6957 165.236L70.1312 157.4L77.6141 150.245Z" fill="black"/>
<path d="M77.6141 149.905C77.6141 149.905 91.8997 140.365 95.8113 140.365C95.8113 140.365 101.594 138.491 104.995 151.438C104.995 151.438 93.2603 153.482 93.4303 159.104L91.2195 154.334L81.6957 164.895L70.1312 157.059L77.6141 149.905Z" fill="#5D526E"/>
<path d="M93.2603 145.135C92.4099 149.223 87.9882 149.905 87.9882 149.905L81.6957 145.987C81.6957 145.987 80.808 140.118 80.058 136.541C79.7706 135.166 79.5036 134.128 79.3148 133.892C78.6345 133.04 89.3487 133.21 89.3487 133.21C90.1007 134.483 90.7853 135.795 91.3997 137.14C92.5664 139.697 93.7143 142.951 93.2603 145.135Z" fill="#EF91A3"/>
<path d="M66.0496 114.301L62.4782 131.336L53.8048 129.122C53.8048 129.122 45.8117 122.819 48.1926 118.901C48.9715 117.62 49.3678 115.756 49.5497 113.829C49.9222 109.858 49.3831 105.613 49.3831 105.613C49.3831 105.613 58.9068 103.058 57.0361 110.042C56.2674 112.911 57.65 114.141 59.5463 114.596C62.269 115.248 66.0496 114.301 66.0496 114.301Z" fill="#EF91A3"/>
<path opacity="0.1" d="M59.5463 114.596C58.1932 115.3 56.6902 115.667 55.1653 115.664C53.065 115.664 51.0429 114.347 49.4681 113.194C49.6862 110.67 49.6577 108.131 49.3831 105.613C49.3831 105.613 58.9068 103.058 57.0361 110.042C56.2674 112.911 57.65 114.141 59.5463 114.596Z" fill="black"/>
<path d="M55.1653 115.323C60.4251 115.323 64.6891 111.052 64.6891 105.784C64.6891 100.515 60.4251 96.244 55.1653 96.244C49.9055 96.244 45.6416 100.515 45.6416 105.784C45.6416 111.052 49.9055 115.323 55.1653 115.323Z" fill="#EF91A3"/>
<path opacity="0.1" d="M54.4533 125.684L57.0361 129.292L58.5057 123.956C59.0733 121.821 59.3726 119.623 59.3968 117.414C59.4091 116.477 59.7134 115.567 60.2673 114.812C62.9175 113.364 64.8851 112.6 68.2251 112.943C71.534 113.305 74.6774 114.581 77.3044 116.629C87.2315 124.266 91.8997 136.958 91.8997 136.958C91.8997 136.958 78.2944 134.232 78.9746 137.299C78.9746 137.299 73.0223 127.759 71.6618 129.292C70.3013 130.825 74.5529 151.097 74.5529 151.097L46.662 153.141L39.3492 133.721L39.6893 119.241C39.6893 119.241 46.9171 115.92 48.4477 115.92C48.9834 115.92 48.9016 115.733 49.128 116.601C50.0003 119.947 52.4416 122.873 54.4533 125.684Z" fill="black"/>
<path opacity="0.1" d="M91.3997 137.14C89.0341 136.713 82.3335 135.621 80.058 136.541C79.7706 135.166 79.5036 134.128 79.3148 133.892C78.6345 133.04 89.3487 133.21 89.3487 133.21C90.1007 134.483 90.7853 135.795 91.3997 137.14Z" fill="black"/>
<path d="M54.7934 125.513L57.3762 129.122L58.8458 123.785C59.4134 121.65 59.7127 119.453 59.7369 117.243C59.7492 116.307 60.0536 115.397 60.6075 114.642C63.2577 113.194 65.2252 112.43 68.5652 112.773C71.8741 113.135 75.0175 114.411 77.6445 116.459C87.5716 124.095 92.2398 136.788 92.2398 136.788C92.2398 136.788 78.6345 134.062 79.3148 137.128C79.3148 137.128 73.3624 127.589 72.0019 129.122C70.6414 130.655 74.893 150.927 74.893 150.927L47.0021 152.971L39.6893 133.551L40.0294 119.071C40.0294 119.071 47.2572 115.749 48.7878 115.749C49.3235 115.749 49.2417 115.562 49.4681 116.431C50.3405 119.777 52.7817 122.703 54.7934 125.513Z" fill="#DFECFB"/>
<path opacity="0.1" d="M48.5534 112.523C47.5976 112.694 46.4846 112.371 46.0186 111.518C45.8344 111.094 45.7039 110.649 45.6299 110.193C45.1361 108.253 43.5207 106.803 42.7252 104.966C41.3852 101.871 42.5617 98.3204 43.7411 95.1605C44.3207 93.6078 44.9435 91.9903 46.1804 90.889C48.0812 89.1965 50.9155 89.1562 53.4369 89.4892C54.4584 89.6242 55.4855 89.8053 56.5127 89.7239C57.5398 89.6425 58.5918 89.2608 59.2419 88.46C59.7894 88.816 59.5867 89.6392 59.4752 90.2834C59.3651 90.919 59.4559 91.6635 59.9678 92.0548C60.4798 92.4461 61.4351 92.1237 61.3923 91.4801C60.9319 92.8445 61.9483 94.3528 63.2575 94.9482C63.692 95.1415 64.151 95.2743 64.6215 95.3428C65.4108 95.4564 66.1318 95.854 66.6496 96.4614C67.1675 97.0688 67.4467 97.8443 67.4351 98.643L67.4348 98.6575C67.4484 98.8349 67.4085 99.0123 67.3203 99.1668C67.2111 99.2899 67.0719 99.3826 66.9162 99.4357C65.5952 100.041 64.5154 101.074 63.8497 102.367C63.4974 103.057 63.232 103.857 62.5821 104.277C61.7834 104.794 60.7381 104.537 59.7898 104.61C59.0049 104.685 58.2601 104.993 57.6507 105.494C57.0413 105.995 56.5951 106.667 56.3691 107.424C56.1487 108.213 56.1781 109.072 55.6853 109.774C55.5806 109.932 55.4435 110.066 55.283 110.168C55.1226 110.269 54.9425 110.335 54.7547 110.361C54.0172 110.441 53.6779 109.779 53.1488 109.437C51.9047 108.633 51.1113 109.694 50.7184 110.695C50.2868 111.795 49.9854 112.267 48.5534 112.523Z" fill="black"/>
<path d="M48.5534 112.353C47.5976 112.523 46.4846 112.2 46.0186 111.347C45.8344 110.924 45.7039 110.479 45.6299 110.023C45.1361 108.082 43.5207 106.633 42.7252 104.796C41.3852 101.701 42.5617 98.15 43.7411 94.9902C44.3207 93.4375 44.9435 91.8199 46.1804 90.7186C48.0812 89.0261 50.9155 88.9858 53.4369 89.3189C54.4584 89.4538 55.4855 89.635 56.5127 89.5536C57.5398 89.4721 58.5918 89.0904 59.2419 88.2897C59.7894 88.6457 59.5867 89.4689 59.4752 90.1131C59.3651 90.7486 59.4559 91.4932 59.9678 91.8845C60.4798 92.2758 61.4351 91.9534 61.3923 91.3098C60.9319 92.6742 61.9483 94.1825 63.2575 94.7778C63.692 94.9712 64.151 95.1039 64.6215 95.1725C65.4108 95.286 66.1318 95.6837 66.6496 96.2911C67.1675 96.8984 67.4467 97.674 67.4351 98.4726L67.4348 98.4872C67.4484 98.6646 67.4085 98.842 67.3203 98.9964C67.2111 99.1196 67.0719 99.2123 66.9162 99.2654C65.5952 99.871 64.5154 100.903 63.8497 102.197C63.4974 102.887 63.232 103.686 62.5821 104.107C61.7834 104.624 60.7381 104.367 59.7898 104.44C59.0049 104.515 58.2601 104.822 57.6507 105.324C57.0413 105.825 56.5951 106.497 56.3691 107.254C56.1487 108.043 56.1781 108.902 55.6853 109.603C55.5806 109.762 55.4435 109.896 55.283 109.997C55.1226 110.099 54.9425 110.165 54.7547 110.191C54.0172 110.271 53.6779 109.608 53.1488 109.266C51.9047 108.462 51.1113 109.524 50.7184 110.525C50.2868 111.624 49.9854 112.097 48.5534 112.353Z" fill="#572142"/>
<g opacity="0.05">
<path opacity="0.05" d="M75.6037 116.288C84.7854 123.352 89.4678 134.738 90.1193 136.409C91.387 136.617 92.2398 136.788 92.2398 136.788C92.2398 136.788 87.5716 124.095 77.6445 116.459C75.0175 114.411 71.8741 113.135 68.5652 112.773C68.1018 112.725 67.667 112.701 67.251 112.695C70.2956 113.16 73.171 114.396 75.6037 116.288Z" fill="black"/>
<path opacity="0.05" d="M47.4273 116.26C48.2997 119.606 50.741 122.533 52.7526 125.343L55.3354 128.951L55.8686 127.015L54.7934 125.513C52.7817 122.703 50.3405 119.777 49.4681 116.431C49.2418 115.562 49.3235 115.749 48.7878 115.749C48.306 115.794 47.8318 115.901 47.3771 116.067C47.3923 116.125 47.4084 116.188 47.4273 116.26Z" fill="black"/>
<path opacity="0.05" d="M78.4096 135.731C78.9621 136.563 79.3148 137.128 79.3148 137.128C79.018 135.791 81.4402 135.555 84.2654 135.715C82.0489 135.479 79.7477 135.378 78.4096 135.731Z" fill="black"/>
<path opacity="0.05" d="M71.8021 129.671C70.9981 128.913 70.3199 128.547 69.9611 128.951C68.6006 130.485 72.8523 150.756 72.8523 150.756L46.8849 152.66L47.0021 152.971L74.8931 150.927C74.8931 150.927 71.1914 133.276 71.8021 129.671Z" fill="black"/>
</g>
<path d="M46.0311 170.226C44.4035 171.575 39.7828 174.808 34.0771 173.583C28.3901 172.362 33.1604 169.631 35.3407 168.567C35.4561 168.51 35.5574 168.429 35.6371 168.328C35.7167 168.227 35.7726 168.11 35.8005 167.984C35.8285 167.859 35.8278 167.729 35.7985 167.604C35.7693 167.479 35.7122 167.362 35.6315 167.262C34.3812 165.732 32.9449 164.365 31.356 163.192C29.97 162.17 28.3016 160.33 26.8493 158.564V158.562C26.0857 157.637 25.385 156.734 24.8136 155.976C24.7062 155.833 24.646 155.661 24.6414 155.482C24.6368 155.304 24.6881 155.129 24.788 154.981C24.888 154.833 25.0316 154.72 25.1987 154.658C25.3658 154.596 25.5481 154.588 25.72 154.635L36.8696 157.667C37.0442 157.715 37.1991 157.817 37.3118 157.959L40.9767 162.546L46.1552 169.03C46.2956 169.206 46.3613 169.43 46.338 169.653C46.3148 169.877 46.2045 170.083 46.0311 170.226Z" fill="#EF91A3"/>
<path opacity="0.1" d="M40.9767 162.546C31.6723 155.749 28.1605 156.964 26.8493 158.562C26.0857 157.637 25.385 156.734 24.8136 155.976C24.7062 155.833 24.646 155.661 24.6414 155.482C24.6368 155.304 24.6881 155.129 24.788 154.981C24.888 154.833 25.0315 154.72 25.1987 154.658C25.3658 154.596 25.5481 154.588 25.72 154.635L36.8696 157.667C37.0442 157.715 37.1991 157.817 37.3118 157.959L40.9767 162.546Z" fill="black"/>
<path d="M33.2268 141.557C33.2268 141.557 18.2609 136.617 20.6418 147.009C23.0228 157.4 26.084 159.955 26.084 159.955C26.084 159.955 26.9343 151.778 41.3899 162.511L36.288 154.334L42.2403 146.838L33.2268 141.557Z" fill="#5D526E"/>
<path opacity="0.1" d="M29.6554 132.188C29.6554 132.188 28.2949 139.343 33.2268 148.031C37.1364 154.918 32.4963 158.058 30.4048 159.064C30.1306 159.196 29.8225 159.24 29.5225 159.189C29.2226 159.139 28.9456 158.997 28.7294 158.783C27.3516 157.417 24.7101 153.955 26.254 148.542L27.2744 145.816L21.6622 141.728C21.6622 141.728 20.1439 136.087 20.818 134.819C21.4922 133.551 26.9343 130.144 26.9343 130.144L29.6554 132.188Z" fill="black"/>
<path d="M29.6554 131.847C29.6554 131.847 28.2949 139.002 33.2268 147.69C37.1364 154.577 32.4963 157.717 30.4048 158.723C30.1306 158.855 29.8225 158.899 29.5225 158.849C29.2226 158.798 28.9456 158.656 28.7294 158.442C27.3516 157.077 24.7101 153.614 26.254 148.201L27.2744 145.475L21.6622 141.387C21.6622 141.387 20.1439 135.746 20.818 134.478C21.4922 133.21 26.9343 129.803 26.9343 129.803L29.6554 131.847Z" fill="#EF91A3"/>
<path d="M42.0702 118.219C42.0702 118.219 29.8254 125.204 24.7234 129.803C19.6214 134.403 20.6418 135.936 20.6418 135.936C20.6418 135.936 25.5738 126.737 29.8254 134.743C29.8254 134.743 41.7301 126.055 44.9614 129.803C48.1926 133.551 42.0702 118.219 42.0702 118.219Z" fill="#DFECFB"/>
<path d="M37.4784 158.422L47.6823 156.378L46.4918 161.659L39.0973 160.888L37.4784 158.422Z" fill="#5D526E"/>
<path d="M55.1653 135.936L54.8252 139.684L42.5804 137.639L38.839 135.254L33.2268 133.21C33.8887 131.383 33.9923 129.4 33.5244 127.514C33.3123 126.7 32.9828 125.922 32.5465 125.204C30.1656 121.286 42.5804 122.989 42.5804 122.989C42.4458 123.872 42.3832 124.765 42.3934 125.659C42.4189 128.505 43.2233 132.517 47.6824 131.847L51.4239 134.062L55.1653 135.936Z" fill="#FFC1CD"/>
<path d="M43.0906 130.655C43.0906 130.655 49.3831 127.929 52.4443 133.551C55.5055 139.172 56.866 138.832 56.866 138.832L50.7436 134.914L43.0906 130.655Z" fill="#FFC1CD"/>
<path d="M48.3627 159.104C48.3627 159.104 43.6008 163.022 46.3219 167.962C49.0429 172.902 66.0496 172.05 66.0496 172.05C66.0496 172.05 55.254 167.987 57.9307 154.346C57.9307 154.346 50.2334 156.548 48.3627 159.104Z" fill="#5F5470"/>
<path d="M70.9815 164.895L69.2808 171.369L75.2332 170.176C75.2332 170.176 72.6822 164.725 73.0223 163.192C73.3624 161.659 70.9815 164.895 70.9815 164.895Z" fill="#5F5470"/>
<path d="M75.7434 157.059C75.7434 157.059 91.2194 158.592 95.4711 160.977L98.7024 161.999C98.7024 161.999 99.8928 161.659 102.444 163.873L115.709 166.94L125.913 168.984C125.913 168.984 135.267 170.687 135.947 170.347C136.627 170.006 141.219 172.902 136.797 174.265C132.376 175.628 123.192 173.583 123.192 173.583C123.192 173.583 116.389 172.732 114.859 173.243C113.328 173.754 102.954 172.221 102.954 172.221L92.75 172.902C92.75 172.902 91.0494 170.347 86.6276 171.198C83.4723 171.806 77.9786 170.853 75.0907 170.257C74.5316 170.142 74.0194 169.862 73.6194 169.455C73.2195 169.047 72.9499 168.529 72.8452 167.967L71.8319 162.511L75.7434 157.059Z" fill="#FFC1CD"/>
<path opacity="0.05" d="M75.7434 157.059C75.7434 157.059 91.2194 158.592 95.4711 160.977L98.7024 161.999C98.7024 161.999 99.8928 161.659 102.444 163.873L115.709 166.94L125.913 168.984C125.913 168.984 135.267 170.687 135.947 170.347C136.627 170.006 141.219 172.902 136.797 174.265C132.376 175.628 123.192 173.583 123.192 173.583C123.192 173.583 116.389 172.732 114.859 173.243C113.328 173.754 102.954 172.221 102.954 172.221L92.75 172.902C92.75 172.902 91.0494 170.347 86.6276 171.198C83.4723 171.806 77.9786 170.853 75.0907 170.257C74.5316 170.142 74.0194 169.862 73.6194 169.455C73.2195 169.047 72.9499 168.529 72.8452 167.967L71.8319 162.511L75.7434 157.059Z" fill="black"/>
<path opacity="0.1" d="M42.3934 125.659C41.1922 126.694 39.7486 127.407 38.1976 127.731C36.6465 128.056 35.0387 127.981 33.5244 127.514C33.3123 126.7 32.9828 125.922 32.5465 125.204C30.1656 121.286 42.5804 122.989 42.5804 122.989C42.4458 123.872 42.3832 124.765 42.3934 125.659Z" fill="black"/>
<path d="M36.288 127.589C41.4538 127.589 45.6416 123.394 45.6416 118.219C45.6416 113.045 41.4538 108.85 36.288 108.85C31.1221 108.85 26.9343 113.045 26.9343 118.219C26.9343 123.394 31.1221 127.589 36.288 127.589Z" fill="#FFC1CD"/>
<path opacity="0.1" d="M32.3764 132.018C32.3764 132.018 39.5192 135.936 39.8594 138.491C40.1995 141.046 38.839 144.113 38.839 144.113C38.839 144.113 42.0702 163.533 46.1518 164.895L57.0361 154.334L66.2197 150.245C66.2197 150.245 60.7775 149.905 60.2674 144.794C59.7572 139.684 60.9476 137.98 54.8252 135.595C48.7028 133.21 45.3865 130.399 45.3865 130.399L43.8056 130.799L51.9341 135.084C51.9341 135.084 56.5259 137.81 44.6212 135.765L33.3968 131.677L32.3764 132.018Z" fill="black"/>
<path d="M32.2064 131.677C32.2064 131.677 39.3492 135.595 39.6893 138.15C40.0294 140.706 38.6689 143.772 38.6689 143.772C38.6689 143.772 41.9002 163.192 45.9818 164.555L56.866 153.993L66.0496 149.905C66.0496 149.905 60.6075 149.564 60.0973 144.453C59.5871 139.343 60.7775 137.639 54.6552 135.254C48.5328 132.869 45.2165 130.059 45.2165 130.059L43.6355 130.458L51.764 134.743C51.764 134.743 56.3558 137.469 44.4512 135.425L33.2268 131.336L32.2064 131.677Z" fill="#FF808C"/>
<path opacity="0.1" d="M34.7573 133.04C34.7573 133.04 27.7846 130.485 29.4853 138.661C31.1859 146.838 40.0294 160.977 40.0294 160.977L60.7775 153.823C60.7775 153.823 67.24 148.882 65.5394 148.371C63.8387 147.86 54.8252 151.097 54.8252 151.097L42.5804 152.971L39.6893 144.794C39.6893 144.794 42.4103 142.92 41.56 140.535C41.5515 140.511 41.5429 140.488 41.5343 140.464C40.3791 137.289 38.0505 134.68 35.0297 133.176L34.7573 133.04Z" fill="black"/>
<path d="M34.4172 132.699C34.4172 132.699 27.4445 130.144 29.1452 138.321C30.8458 146.498 39.6893 160.637 39.6893 160.637L60.4374 153.482C60.4374 153.482 66.8999 148.542 65.1992 148.031C63.4986 147.52 54.485 150.756 54.485 150.756L42.2403 152.63L39.3491 144.453C39.3491 144.453 42.0702 142.579 41.2199 140.195C41.2114 140.171 41.2028 140.147 41.1942 140.123C40.039 136.948 37.7104 134.339 34.6896 132.836L34.4172 132.699Z" fill="#FFC1CD"/>
<path opacity="0.1" d="M35.0673 104.783C34.2597 104.551 33.4176 104.462 32.5795 104.522C31.7904 104.638 31.0256 104.882 30.3154 105.246C29.1722 105.78 28.0778 106.414 27.0446 107.139C26.3498 107.627 25.669 108.163 24.8673 108.442C23.665 108.859 22.274 108.665 21.1662 109.292C19.6138 110.171 19.2668 112.278 19.496 114.05C19.7253 115.821 20.3526 117.587 20.0737 119.351C19.6563 121.991 17.3703 123.867 15.2702 125.516C14.6088 126.036 13.899 126.645 13.7975 127.481C13.734 128.004 13.9254 128.519 14.0854 129.02C14.9713 131.767 14.9252 134.73 13.9542 137.448C12.9622 140.164 11.0072 142.42 8.46181 143.785C7.49644 144.29 6.32515 144.806 6.09904 145.873C5.81199 147.228 7.26847 148.278 8.56534 148.758C9.62335 149.149 10.7173 149.436 11.8314 149.612C12.8112 149.768 13.8588 149.828 14.7529 149.398C15.7934 148.897 16.4281 147.835 16.978 146.818C19.1189 142.86 21.7472 140.919 23.1325 136.636C23.4312 135.713 23.9077 134.614 24.8726 134.52C25.476 134.462 26.0216 134.843 26.5345 135.167C29.0093 136.729 31.6087 134.978 33.9123 133.173C34.4453 132.755 34.9014 132.231 35.4947 131.905C36.7553 131.212 38.5911 131.41 39.3468 130.185C39.5224 129.862 39.6446 129.512 39.7086 129.15C40.0183 127.818 40.3276 126.42 39.9697 125.1C39.6386 123.879 38.775 122.877 38.2663 121.719C37.7575 120.561 37.7282 118.978 38.7678 118.259C39.0794 118.043 39.4544 117.931 39.761 117.709C40.6545 117.06 40.6746 115.763 40.6696 114.658C40.6469 114.384 40.6937 114.11 40.8055 113.859C40.969 113.621 41.1841 113.424 41.4346 113.281C42.4268 112.6 43.1994 111.644 43.6581 110.53C44.1086 109.312 42.9547 108.761 42.0328 108.077C39.9501 106.531 37.583 105.411 35.0673 104.783Z" fill="black"/>
<path d="M34.8972 104.613C34.0896 104.38 33.2475 104.292 32.4094 104.352C31.6203 104.468 30.8555 104.712 30.1454 105.076C29.0021 105.61 27.9077 106.243 26.8745 106.969C26.1797 107.456 25.4989 107.993 24.6973 108.271C23.495 108.689 22.1039 108.495 20.9962 109.122C19.4437 110.001 19.0967 112.108 19.326 113.88C19.5552 115.651 20.1825 117.416 19.9036 119.181C19.4862 121.821 17.2003 123.696 15.1001 125.346C14.4388 125.865 13.7289 126.475 13.6274 127.311C13.5639 127.833 13.7554 128.348 13.9153 128.85C14.8012 131.597 14.7551 134.56 13.7841 137.278C12.7921 139.994 10.8372 142.25 8.29174 143.615C7.32638 144.12 6.15508 144.636 5.92897 145.703C5.64191 147.058 7.0984 148.107 8.39527 148.587C9.45328 148.979 10.5472 149.265 11.6613 149.442C12.6411 149.597 13.6887 149.658 14.5828 149.227C15.6233 148.727 16.258 147.664 16.8079 146.648C18.9489 142.689 21.5772 140.749 22.9624 136.466C23.2612 135.542 23.7376 134.443 24.7025 134.35C25.306 134.292 25.8515 134.673 26.3645 134.996C28.8393 136.558 31.4386 134.808 33.7423 133.002C34.2753 132.585 34.7313 132.06 35.3247 131.734C36.5852 131.042 38.421 131.24 39.1767 130.014C39.3523 129.691 39.4745 129.342 39.5385 128.98C39.8482 127.648 40.1576 126.249 39.7997 124.929C39.4685 123.708 38.605 122.707 38.0962 121.549C37.5874 120.39 37.5581 118.807 38.5977 118.088C38.9093 117.873 39.2844 117.761 39.591 117.538C40.4844 116.889 40.5045 115.593 40.4995 114.487C40.4769 114.214 40.5236 113.939 40.6354 113.689C40.7989 113.451 41.014 113.253 41.2646 113.11C42.2568 112.429 43.0294 111.473 43.488 110.36C43.9385 109.142 42.7846 108.591 41.8628 107.907C39.78 106.36 37.4129 105.241 34.8972 104.613Z" fill="#B46D86"/>
<path d="M114.093 179.29C109.476 180.266 96.0034 179.852 94.0255 178.268C90.9984 175.842 91.7433 173.687 91.9439 173.243H91.8997C91.8997 173.243 93.6004 169.154 91.8997 166.088C91.8997 166.088 91.7296 162.34 88.1582 159.444C84.5868 156.548 80.6753 148.371 80.6753 148.371L78.6345 152.63C78.6345 152.63 75.5665 161.981 72.3846 166.132C71.748 166.956 71.3145 167.918 71.1193 168.941C70.9084 170.067 70.1805 171.486 67.9203 171.88L67.803 171.9C66.2204 172.165 64.5952 171.973 63.1182 171.345C61.6412 170.717 60.3737 169.68 59.4646 168.355C57.9425 166.16 56.2184 163.113 55.8285 160.145C55.7014 159.147 55.7841 158.133 56.0715 157.168C56.3588 156.204 56.8443 155.31 57.4969 154.545L57.5157 154.523C61.1789 150.187 73.8795 135.275 75.9135 134.403C75.9135 134.403 85.0971 125.544 88.6685 137.469C92.2399 149.394 93.4303 152.971 93.4303 152.971C93.4303 152.971 97.7007 160.611 98.8724 163.192C100.083 165.86 105.121 172.514 105.633 173.186C106.1 173.507 110.602 176.565 112.053 176.565C112.694 176.565 117.42 178.587 114.093 179.29Z" fill="#FFC1CD"/>
<g opacity="0.05">
<path opacity="0.05" d="M92.5957 168.488C92.74 167.164 92.6612 165.587 91.8997 164.214C91.8997 164.214 91.7296 160.466 88.1582 157.57C84.5868 154.674 80.6753 146.498 80.6753 146.498L78.6345 150.756C78.6345 150.756 75.5665 160.107 72.3846 164.258C71.748 165.082 71.3145 166.044 71.1193 167.067C70.9084 168.193 70.1805 169.612 67.9203 170.006L67.803 170.026C66.2204 170.291 64.5952 170.099 63.1182 169.471C61.6412 168.843 60.3737 167.806 59.4646 166.481C57.9593 164.311 56.2588 161.307 55.8441 158.37C55.7495 159.015 55.7442 159.669 55.8285 160.316C56.2184 163.283 57.9425 166.33 59.4646 168.526C60.3737 169.85 61.6412 170.887 63.1182 171.515C64.5952 172.143 66.2204 172.336 67.803 172.071L67.9203 172.05C70.1805 171.657 70.9084 170.238 71.1193 169.112C71.3145 168.089 71.748 167.126 72.3846 166.303C75.5665 162.151 78.6345 152.801 78.6345 152.801L80.6753 148.542C80.6753 148.542 84.5868 156.719 88.1582 159.615C91.7296 162.511 91.8997 166.258 91.8997 166.258C92.2733 166.95 92.5096 167.707 92.5957 168.488Z" fill="black"/>
</g>
<path opacity="0.05" d="M48.2776 146.412C48.2776 146.412 55.5905 146.242 55.0803 143.857L48.2776 146.412Z" fill="black"/>
<path d="M168.212 154.922C168.212 154.922 179.566 147.087 190.668 149.867C201.771 152.648 193.444 162.252 193.444 162.252L168.212 154.922Z" fill="#EED1D7"/>
<path d="M163.67 149.867C163.67 149.867 174.772 145.065 182.342 150.12C189.911 155.175 205.051 157.703 205.051 157.703" fill="#CCB2BB"/>
</g>
<g clip-path="url(#clip2)">
<path d="M195.454 145.812H192.676C192.326 145.812 191.992 145.673 191.745 145.426C191.498 145.179 191.359 144.845 191.358 144.496V121.362C191.359 121.013 191.498 120.678 191.745 120.432C191.992 120.185 192.326 120.046 192.676 120.046H195.454C195.803 120.046 196.138 120.185 196.385 120.432C196.632 120.678 196.771 121.013 196.771 121.362V144.496C196.771 144.845 196.632 145.179 196.385 145.426C196.138 145.673 195.803 145.812 195.454 145.812Z" fill="#EB9819"/>
<path d="M189.583 145.812H186.805C186.456 145.812 186.121 145.673 185.874 145.426C185.627 145.179 185.488 144.845 185.488 144.496V121.362C185.488 121.013 185.627 120.678 185.874 120.432C186.121 120.185 186.456 120.046 186.805 120.046H189.583C189.932 120.046 190.267 120.185 190.514 120.432C190.761 120.678 190.9 121.013 190.901 121.362V144.496C190.9 144.845 190.761 145.179 190.514 145.426C190.267 145.673 189.932 145.812 189.583 145.812Z" fill="#EB9819"/>
<path d="M116.424 70.952C115.862 73.305 115.152 73.865 114.479 73.7045C113.806 73.5439 113.426 72.7236 113.988 70.3706C114.55 68.0176 116.515 65.1835 116.515 65.1835C116.515 65.1835 116.987 68.599 116.424 70.952Z" fill="#CCCCCC"/>
<path d="M114.919 111.949C114.356 114.302 113.646 114.862 112.973 114.701C112.3 114.541 111.92 113.72 112.482 111.367C113.045 109.014 115.01 106.18 115.01 106.18C115.01 106.18 115.481 109.596 114.919 111.949Z" fill="#CCCCCC"/>
<path d="M197.318 38.6774C197.318 38.6774 198.607 35.9526 196.524 35.2442C194.442 34.5357 194.591 37.3895 194.591 37.3895L197.125 38.8919" fill="#3F3D56"/>
<path d="M153.554 46.6944L149.238 50.1911C149.238 50.1911 213.997 71.9384 221.383 76.2525L220.654 70.1586L214.535 62.712L202.684 55.1571L183.552 49.2102L162.703 41.7181L153.554 46.6944Z" fill="#EB9819"/>
<path d="M186.536 55.3903L171.884 91.9285C171.884 91.9285 169.543 97.9789 174.718 99.1385C177.829 99.8357 179.474 97.9498 180.291 96.3348C181.163 94.6099 178.794 93.0931 177.611 94.6216C177.591 94.6464 177.572 94.6717 177.553 94.6975C177.524 94.7361 174.42 97.143 174.422 93.849C174.429 93.0896 174.587 92.3391 174.885 91.6407L189.284 57.0859L186.536 55.3903Z" fill="#3F3D56"/>
<path d="M195.831 37.1266C195.831 37.1266 191.708 36.5251 189.389 35.2158C189.389 35.2158 163.945 29.8042 149.253 49.9924C149.253 49.9924 218.416 65.99 221.399 76.0537C221.399 76.0537 225.74 57.43 202.745 40.2391C202.745 40.2391 197.119 38.2855 195.831 37.1266Z" fill="#3F3D56"/>
<path d="M117.38 95.1878C117.037 96.6236 116.604 96.9653 116.193 96.8674C115.783 96.7694 115.55 96.2688 115.894 94.833C116.237 93.3972 117.436 91.6679 117.436 91.6679C117.436 91.6679 117.723 93.752 117.38 95.1878Z" fill="#CCCCCC"/>
<path d="M106.653 102.146C106.31 103.582 105.876 103.923 105.466 103.825C105.055 103.728 104.823 103.227 105.166 101.791C105.509 100.355 106.708 98.626 106.708 98.626C106.708 98.626 106.996 100.71 106.653 102.146Z" fill="#CCCCCC"/>
<path d="M185.495 34.2807C184.932 36.6337 184.222 37.1938 183.549 37.0332C182.876 36.8727 182.496 36.0523 183.058 33.6993C183.62 31.3463 185.585 28.5123 185.585 28.5123C185.585 28.5123 186.057 31.9277 185.495 34.2807Z" fill="#CCCCCC"/>
<path d="M187.956 17.5199C187.613 18.9557 187.179 19.2974 186.769 19.1994C186.358 19.1015 186.126 18.6009 186.469 17.1651C186.813 15.7293 188.012 14 188.012 14C188.012 14 188.299 16.0841 187.956 17.5199Z" fill="#CCCCCC"/>
<path d="M177.229 24.478C176.885 25.9138 176.452 26.2555 176.041 26.1576C175.631 26.0596 175.399 25.559 175.742 24.1232C176.085 22.6875 177.284 20.9581 177.284 20.9581C177.284 20.9581 177.572 23.0422 177.229 24.478Z" fill="#CCCCCC"/>
<path d="M155.759 107.999C155.196 110.352 154.486 110.912 153.813 110.752C153.14 110.591 152.76 109.771 153.322 107.418C153.885 105.065 155.849 102.231 155.849 102.231C155.849 102.231 156.321 105.646 155.759 107.999Z" fill="#CCCCCC"/>
<path d="M158.22 91.2386C157.877 92.6744 157.444 93.0161 157.033 92.9181C156.623 92.8202 156.39 92.3196 156.733 90.8838C157.077 89.448 158.276 87.7187 158.276 87.7187C158.276 87.7187 158.563 89.8028 158.22 91.2386Z" fill="#CCCCCC"/>
<path d="M147.493 98.1967C147.15 99.6325 146.716 99.9742 146.305 99.8763C145.895 99.7783 145.663 99.2777 146.006 97.842C146.349 96.4062 147.548 94.6768 147.548 94.6768C147.548 94.6768 147.836 96.7609 147.493 98.1967Z" fill="#CCCCCC"/>
<path d="M144.655 37.8538C144.092 40.2068 143.382 40.7668 142.709 40.6063C142.036 40.4457 141.656 39.6254 142.218 37.2724C142.781 34.9194 144.746 32.0853 144.746 32.0853C144.746 32.0853 145.217 35.5008 144.655 37.8538Z" fill="#CCCCCC"/>
<path d="M143.149 78.8504C142.587 81.2034 141.876 81.7635 141.204 81.6029C140.531 81.4424 140.15 80.622 140.713 78.269C141.275 75.916 143.24 73.082 143.24 73.082C143.24 73.082 143.711 76.4974 143.149 78.8504Z" fill="#CCCCCC"/>
<path d="M145.611 62.0896C145.267 63.5254 144.834 63.8671 144.423 63.7692C144.013 63.6712 143.781 63.1706 144.124 61.7348C144.467 60.299 145.666 58.5697 145.666 58.5697C145.666 58.5697 145.954 60.6538 145.611 62.0896Z" fill="#CCCCCC"/>
<path d="M134.883 69.0477C134.54 70.4835 134.107 70.8253 133.696 70.7273C133.285 70.6293 133.053 70.1288 133.396 68.693C133.74 67.2572 134.939 65.5278 134.939 65.5278C134.939 65.5278 135.226 67.612 134.883 69.0477Z" fill="#CCCCCC"/>
<path d="M173.45 39.5463C172.887 41.8993 172.177 42.4594 171.504 42.2988C170.831 42.1383 170.451 41.3179 171.013 38.9649C171.576 36.6119 173.541 33.7779 173.541 33.7779C173.541 33.7779 174.012 37.1933 173.45 39.5463Z" fill="#CCCCCC"/>
<path d="M171.944 80.5429C171.382 82.8959 170.671 83.456 169.998 83.2954C169.326 83.1349 168.945 82.3145 169.508 79.9615C170.07 77.6086 172.035 74.7745 172.035 74.7745C172.035 74.7745 172.506 78.1899 171.944 80.5429Z" fill="#CCCCCC"/>
<path d="M174.406 63.7821C174.062 65.2179 173.629 65.5596 173.218 65.4617C172.808 65.3637 172.576 64.8631 172.919 63.4273C173.262 61.9916 174.461 60.2622 174.461 60.2622C174.461 60.2622 174.749 62.3463 174.406 63.7821Z" fill="#CCCCCC"/>
<path d="M200.174 47.4447C199.612 49.7977 198.902 50.3578 198.229 50.1973C197.556 50.0367 197.176 49.2164 197.738 46.8634C198.3 44.5104 200.265 41.6763 200.265 41.6763C200.265 41.6763 200.737 45.0917 200.174 47.4447Z" fill="#CCCCCC"/>
<path d="M191.908 37.6421C191.565 39.0779 191.132 39.4196 190.721 39.3216C190.311 39.2237 190.079 38.7231 190.422 37.2873C190.765 35.8515 191.964 34.1222 191.964 34.1222C191.964 34.1222 192.251 36.2063 191.908 37.6421Z" fill="#CCCCCC"/>
<path d="M213.537 36.3493C212.974 38.7023 212.264 39.2624 211.591 39.1018C210.918 38.9413 210.538 38.1209 211.1 35.768C211.663 33.415 213.628 30.5809 213.628 30.5809C213.628 30.5809 214.099 33.9963 213.537 36.3493Z" fill="#CCCCCC"/>
<path d="M212.031 77.3459C211.469 79.6989 210.758 80.259 210.086 80.0984C209.413 79.9379 209.032 79.1175 209.595 76.7645C210.157 74.4116 212.122 71.5775 212.122 71.5775C212.122 71.5775 212.593 74.9929 212.031 77.3459Z" fill="#CCCCCC"/>
<path d="M214.493 60.5851C214.149 62.0209 213.716 62.3627 213.305 62.2647C212.895 62.1667 212.663 61.6662 213.006 60.2304C213.349 58.7946 214.548 57.0652 214.548 57.0652C214.548 57.0652 214.836 59.1494 214.493 60.5851Z" fill="#CCCCCC"/>
<path d="M240.261 44.2478C239.699 46.6008 238.989 47.1608 238.316 47.0003C237.643 46.8397 237.263 46.0194 237.825 43.6664C238.387 41.3134 240.352 38.4793 240.352 38.4793C240.352 38.4793 240.824 41.8947 240.261 44.2478Z" fill="#CCCCCC"/>
<path d="M231.995 34.4451C231.652 35.8809 231.219 36.2226 230.808 36.1247C230.398 36.0267 230.166 35.5261 230.509 34.0903C230.852 32.6545 232.051 30.9252 232.051 30.9252C232.051 30.9252 232.339 33.0093 231.995 34.4451Z" fill="#CCCCCC"/>
<path d="M229.157 63.2416C228.595 65.5946 227.885 66.1547 227.212 65.9941C226.539 65.8336 226.159 65.0132 226.721 62.6602C227.283 60.3072 229.248 57.4731 229.248 57.4731C229.248 57.4731 229.72 60.8886 229.157 63.2416Z" fill="#CCCCCC"/>
<path d="M227.652 104.238C227.089 106.591 226.379 107.151 225.706 106.991C225.033 106.83 224.653 106.01 225.215 103.657C225.778 101.304 227.743 98.4698 227.743 98.4698C227.743 98.4698 228.214 101.885 227.652 104.238Z" fill="#CCCCCC"/>
<path d="M230.113 87.4774C229.77 88.9132 229.337 89.2549 228.926 89.157C228.516 89.059 228.284 88.5584 228.627 87.1226C228.97 85.6868 230.169 83.9575 230.169 83.9575C230.169 83.9575 230.457 86.0416 230.113 87.4774Z" fill="#CCCCCC"/>
<path d="M255.882 71.14C255.32 73.493 254.609 74.0531 253.937 73.8925C253.264 73.732 252.883 72.9116 253.446 70.5586C254.008 68.2057 255.973 65.3716 255.973 65.3716C255.973 65.3716 256.444 68.787 255.882 71.14Z" fill="#CCCCCC"/>
<path d="M247.616 61.3374C247.273 62.7732 246.84 63.1149 246.429 63.0169C246.018 62.919 245.786 62.4184 246.129 60.9826C246.473 59.5468 247.672 57.8175 247.672 57.8175C247.672 57.8175 247.959 59.9016 247.616 61.3374Z" fill="#CCCCCC"/>
<path d="M193.06 94.7054C198.361 94.7054 202.658 90.4113 202.658 85.1144C202.658 79.8175 198.361 75.5234 193.06 75.5234C187.759 75.5234 183.462 79.8175 183.462 85.1144C183.462 90.4113 187.759 94.7054 193.06 94.7054Z" fill="#EB9819"/>
<path d="M185.337 89.1405C184.714 89.1232 183.94 89.1014 183.344 88.6662C183.166 88.5312 183.02 88.359 182.916 88.1617C182.812 87.9644 182.752 87.7468 182.741 87.524C182.73 87.3658 182.757 87.2072 182.817 87.0606C182.878 86.9141 182.972 86.7836 183.091 86.6793C183.403 86.4161 183.858 86.3544 184.348 86.4985L183.84 82.7888L184.213 82.7378L184.81 87.0989L184.499 86.9561C184.138 86.7907 183.642 86.7065 183.334 86.9665C183.259 87.0344 183.2 87.1189 183.162 87.2133C183.125 87.3077 183.109 87.4095 183.117 87.5108C183.127 87.6766 183.171 87.8385 183.249 87.9854C183.326 88.1324 183.434 88.2609 183.566 88.3624C184.03 88.7012 184.647 88.7449 185.347 88.7646L185.337 89.1405Z" fill="#2F2E41"/>
<path d="M188.395 83.1088H186.368V83.4849H188.395V83.1088Z" fill="#2F2E41"/>
<path d="M193.731 75.4951C193.802 74.3613 194.116 73.256 194.651 72.2539C195.186 71.2518 195.931 70.3763 196.834 69.6868C197.768 68.9961 198.845 68.5245 199.986 68.3071C201.127 68.0897 202.302 68.132 203.424 68.4309C204.539 68.7205 205.574 69.2592 206.45 70.0064C207.327 70.7536 208.022 71.6899 208.484 72.7447C208.948 73.7916 209.18 74.9268 209.163 76.0719C209.112 77.3172 208.802 78.5382 208.254 79.6576C207.688 80.8898 206.974 82.0458 206.354 83.2503C205.743 84.4381 205.217 85.667 204.777 86.9282C203.884 89.4979 203.357 92.1804 203.211 94.8969C202.981 99.1791 203.391 105.431 208.229 107.074C209.459 107.492 210.786 107.57 212.076 107.567C213.435 107.583 214.789 107.425 216.107 107.095C218.391 106.485 220.559 105.054 221.533 102.831C221.757 102.318 221.907 101.775 221.979 101.22C221.999 101.067 221.835 100.939 221.697 100.938C221.623 100.939 221.552 100.97 221.499 101.022C221.447 101.075 221.416 101.145 221.415 101.22C221.099 103.589 219.124 105.406 216.979 106.222C215.725 106.676 214.409 106.931 213.076 106.977C211.75 107.044 210.373 107.033 209.075 106.728C207.919 106.478 206.867 105.881 206.061 105.016C205.342 104.19 204.806 103.221 204.488 102.173C203.724 99.8435 203.644 97.2827 203.778 94.8552C203.93 92.1476 204.469 89.4756 205.377 86.9204C205.837 85.6302 206.39 84.3757 207.034 83.1671C207.663 81.9849 208.362 80.8362 208.892 79.6039C209.409 78.4714 209.694 77.2465 209.728 76.002C209.733 74.8526 209.504 73.7144 209.055 72.6559C208.615 71.5931 207.954 70.6356 207.117 69.846C206.28 69.0564 205.285 68.4528 204.198 68.0746C203.092 67.6899 201.917 67.5405 200.75 67.636C199.583 67.7316 198.448 68.0699 197.42 68.6294C196.441 69.1915 195.584 69.9418 194.897 70.837C194.21 71.7322 193.708 72.7545 193.419 73.8448C193.279 74.3848 193.194 74.9378 193.167 75.4951C193.148 75.8579 193.713 75.8569 193.731 75.4951L193.731 75.4951Z" fill="#2F2E41"/>
<path d="M195.608 75.6931C195.763 74.6467 196.287 73.6903 197.087 72.9977C197.937 72.2856 199.027 71.9241 200.135 71.9868C200.498 72.005 200.497 71.4408 200.135 71.4227C198.931 71.3684 197.749 71.7582 196.814 72.518C195.879 73.2777 195.256 74.3544 195.064 75.5432C195.01 75.8983 195.554 76.0515 195.608 75.6931Z" fill="#2F2E41"/>
<path d="M195.517 76.2944L192.836 75.4099C192.599 75.3317 192.403 75.1627 192.291 74.9399C192.178 74.7172 192.159 74.459 192.238 74.2222C192.316 73.9854 192.485 73.7894 192.708 73.6772C192.931 73.5651 193.189 73.546 193.426 73.6242L196.107 74.5086C196.344 74.5868 196.54 74.7559 196.652 74.9786C196.765 75.2013 196.784 75.4595 196.705 75.6963C196.627 75.9331 196.458 76.1292 196.235 76.2413C196.012 76.3535 195.754 76.3725 195.517 76.2944Z" fill="#2F2E41"/>
<path d="M199.862 129.72H182.21C181.886 129.72 181.575 129.591 181.346 129.362C181.116 129.133 180.987 128.822 180.987 128.498V125.722C180.987 125.398 181.116 125.088 181.346 124.858C181.575 124.629 181.886 124.5 182.21 124.5H199.862C200.186 124.5 200.497 124.629 200.726 124.858C200.956 125.088 201.085 125.398 201.085 125.722V128.498C201.085 128.822 200.956 129.133 200.726 129.362C200.497 129.591 200.186 129.72 199.862 129.72Z" fill="#CCCCCC"/>
<path d="M203.622 125.519C203.613 125.519 203.604 125.519 203.596 125.519L178.913 125C178.731 124.996 178.553 124.952 178.39 124.87C178.228 124.789 178.086 124.673 177.974 124.53C177.862 124.386 177.784 124.22 177.744 124.043C177.705 123.866 177.705 123.682 177.746 123.505L183.755 97.2148C183.816 96.9444 183.967 96.7027 184.184 96.5299C184.401 96.3571 184.671 96.2635 184.948 96.2646H188.971C191.804 96.2744 194.549 97.2535 196.748 99.0388C198.947 100.824 200.468 103.308 201.058 106.077L204.819 124.046C204.856 124.224 204.853 124.408 204.81 124.585C204.767 124.761 204.686 124.926 204.571 125.067C204.456 125.208 204.312 125.322 204.148 125.4C203.983 125.478 203.804 125.519 203.622 125.519V125.519Z" fill="#2F2E41"/>
<path d="M187.764 110.645C187.442 110.646 187.133 110.519 186.905 110.293L170.432 94.0378C170.318 93.925 170.227 93.7908 170.164 93.6429C170.102 93.4949 170.069 93.3362 170.068 93.1757C170.067 93.0151 170.098 92.856 170.159 92.7073C170.219 92.5586 170.308 92.4233 170.421 92.3091L172.373 90.3341C172.601 90.1034 172.911 89.9727 173.236 89.9707C173.56 89.9687 173.872 90.0955 174.103 90.3233L190.576 106.579C190.806 106.807 190.937 107.117 190.939 107.441C190.941 107.765 190.814 108.077 190.586 108.308L188.635 110.283C188.521 110.398 188.385 110.489 188.236 110.551C188.086 110.614 187.926 110.646 187.764 110.645Z" fill="#EB9819"/>
<path d="M187.003 111.138L179.759 104.076C179.533 103.855 179.401 103.557 179.39 103.241C179.378 102.926 179.489 102.619 179.698 102.383L182.747 98.9491C182.867 98.8134 183.016 98.7062 183.183 98.6349C183.35 98.5637 183.531 98.5304 183.712 98.5372C183.894 98.5441 184.071 98.591 184.232 98.6747C184.393 98.7583 184.534 98.8766 184.643 99.0209L192.394 106.914C192.611 107.156 192.723 107.474 192.706 107.799C192.689 108.124 192.544 108.428 192.302 108.646L188.738 111.23C188.496 111.447 188.177 111.56 187.851 111.542C187.526 111.525 187.221 111.38 187.003 111.138Z" fill="#2F2E41"/>
</g>
<g clip-path="url(#clip3)">
<path d="M135.968 193.473C135.968 193.473 133.132 206.649 136.999 206.39C140.866 206.132 139.061 194.248 139.061 194.248L135.968 193.473Z" fill="#A0616A"/>
<path d="M151.435 256.249L153.239 265.808L157.364 265.291L156.075 254.957L151.435 256.249Z" fill="#A0616A"/>
<path d="M172.316 246.949L173.347 253.924H178.76L177.729 247.466L172.316 246.949Z" fill="#A0616A"/>
<path d="M147.31 187.015C147.31 187.015 142.928 195.54 144.475 216.724C146.021 237.907 146.021 258.058 146.021 258.058L157.106 257.283L160.2 204.582L172.316 250.307L180.307 249.532L178.245 204.84L171.8 183.398L147.31 187.015Z" fill="#2F2E41"/>
<path d="M154.786 261.416C154.786 261.416 155.559 259.091 154.271 259.091H151.435C151.435 259.091 148.341 264.774 146.537 265.291C144.732 265.808 139.061 270.716 144.475 271.233C149.888 271.749 158.137 268.908 158.137 267.874C158.137 266.841 157.364 262.449 157.364 262.449L154.786 261.416Z" fill="#2F2E41"/>
<path d="M177.472 252.374C177.472 252.374 172.733 251.061 173.04 251.847C173.347 252.633 172.316 254.958 172.316 254.958C172.316 254.958 169.738 269.683 177.472 268.391C185.205 267.099 179.534 255.991 179.534 255.991L178.389 251.596L177.472 252.374Z" fill="#2F2E41"/>
<path d="M155.817 131.214C160.088 131.214 163.551 127.745 163.551 123.464C163.551 119.184 160.088 115.714 155.817 115.714C151.546 115.714 148.084 119.184 148.084 123.464C148.084 127.745 151.546 131.214 155.817 131.214Z" fill="#A0616A"/>
<path d="M150.661 127.598C150.661 127.598 151.95 135.089 151.177 136.639C150.404 138.189 157.364 141.29 157.364 141.29L160.973 132.506V127.598L150.661 127.598Z" fill="#A0616A"/>
<path d="M154.786 136.381C154.786 136.381 152.439 136.727 151.422 135.004C150.404 133.281 148.084 146.973 148.084 146.973C148.084 146.973 149.115 165.056 147.826 169.19C146.537 173.323 146.795 174.873 147.31 175.648C147.826 176.423 149.373 175.39 148.084 177.457C146.795 179.523 146.795 178.232 146.795 180.298C146.795 182.365 146.279 189.857 146.279 189.857L174.12 187.79L160.973 131.214C160.973 131.214 156.591 136.639 154.786 136.381Z" fill="#3F3D56"/>
<path d="M165.613 134.056C165.613 134.056 176.183 135.606 176.698 137.931C177.214 140.256 187.525 204.84 182.112 208.199C176.698 211.557 159.169 214.14 158.395 210.782C157.622 207.424 153.497 138.964 160.973 131.214L165.613 134.056Z" fill="#D0CDE1"/>
<path d="M180.501 202.107H178.337C178.337 202.107 179.003 194.264 178.337 193.541C178.337 193.541 172.287 192.874 166.181 199.548C166.181 199.548 167.236 192.262 175.117 191.873C177.644 191.748 179.104 192.755 179.921 194.181C181.654 197.203 180.501 202.107 180.501 202.107Z" fill="#3F3D56"/>
<path opacity="0.15" d="M180.501 202.107H178.337C178.337 202.107 179.003 194.264 178.337 193.541L179.921 194.181C181.654 197.203 180.501 202.107 180.501 202.107Z" fill="black"/>
<path d="M167.791 196.99L164.794 202.107H166.181C166.181 202.107 166.403 198.325 167.791 196.99Z" fill="#3F3D56"/>
<path opacity="0.15" d="M167.791 196.99L164.794 202.107H166.181C166.181 202.107 166.403 198.325 167.791 196.99Z" fill="black"/>
<path d="M193.378 223.743C193.419 224.603 193.251 225.459 192.888 226.239C192.526 227.019 191.979 227.699 191.297 228.221C191.297 228.221 163.712 234.784 160.659 234.228C160.284 234.158 159.919 234.038 159.575 233.872C157.142 232.715 155.608 229.556 155.608 229.556C155.608 229.556 155.562 228.739 155.494 227.409C155.363 224.836 155.151 220.34 155.034 216.108C154.918 211.926 154.895 208.003 155.136 206.445C155.747 202.496 159.965 202.163 159.965 202.163L188.05 200.939C188.972 200.93 189.891 201.05 190.78 201.297C193.816 202.211 193.378 204.554 193.378 204.554C193.378 204.554 193.267 220.74 193.378 223.743Z" fill="#575A89"/>
<path d="M190.78 201.297C189.059 201.834 184.921 203.019 183.443 202.496C181.556 201.829 166.958 202.274 161.63 202.886C156.302 203.497 158.189 217.959 158.189 217.959L155.034 216.108C154.918 211.926 154.895 208.003 155.136 206.445C155.747 202.496 159.965 202.163 159.965 202.163L188.05 200.939C188.972 200.93 189.891 201.05 190.78 201.297Z" fill="#3F3D56"/>
<path d="M170.622 211.674C170.622 211.674 167.948 196.7 172.865 194.648L173.508 194.654C173.508 194.654 171.954 196.712 172.564 200.494C173.175 204.276 172.842 212.897 172.842 212.897C172.842 212.897 170.955 214.01 170.622 211.674Z" fill="#2F2E41"/>
<path d="M172.564 195.154C172.564 195.154 175.506 190.426 180.89 193.041C186.274 195.655 186.773 201.606 186.773 201.606C186.773 201.606 183.054 190.705 172.564 195.154Z" fill="#2F2E41"/>
<path d="M187.162 212.286L186.274 206.557L186.718 201.192L187.828 206.723L188.327 212.286H187.162Z" fill="#2F2E41"/>
<path d="M177.171 211.618L180.279 210.839L183.443 211.229V212.619L180.557 213.509L177.171 213.175V211.618Z" fill="#2F2E41"/>
<path d="M159.077 231.753C159.154 232.477 159.321 233.189 159.575 233.872C157.142 232.715 155.608 229.556 155.608 229.556C155.608 229.556 155.562 228.739 155.494 227.409L157.523 228.249L159.077 231.753Z" fill="#3F3D56"/>
<path d="M160.409 234.812C160.267 234.778 160.137 234.706 160.033 234.602C160.45 234.77 160.625 234.858 160.409 234.812Z" fill="#2F2E41"/>
<path d="M151.42 134.444L141.381 144.39L144.99 176.682C144.99 176.682 137.772 214.915 141.897 214.915C146.021 214.915 145.506 215.432 146.279 212.59C147.052 209.749 151.42 134.444 151.42 134.444Z" fill="#D0CDE1"/>
<path d="M143.959 143.615L141.381 144.39C141.381 144.39 139.061 146.198 139.319 150.073C139.577 153.948 139.061 165.056 139.061 165.056C139.061 165.056 137.514 167.381 138.288 170.223L134.679 195.023L142.67 196.315L145.506 183.398L143.959 143.615Z" fill="#D0CDE1"/>
<path d="M175.925 184.69C175.925 184.69 172.831 200.965 175.925 199.932C179.018 198.899 182.885 187.532 180.307 185.723C177.729 183.915 175.925 184.69 175.925 184.69Z" fill="#A0616A"/>
<path d="M148.065 124.373C148.065 124.373 147.276 123.186 147.579 121.908C147.761 121.183 147.832 120.434 147.792 119.687C147.792 119.687 148.43 117.617 149.067 116.461C149.705 115.305 149.401 114.818 151.406 114.452C153.41 114.087 152.59 111.47 157.874 114.3C158.052 114.55 158.3 114.741 158.587 114.849C158.873 114.957 159.185 114.978 159.483 114.909C160.576 114.696 160.971 116.217 160.971 116.217C160.971 116.217 161.7 115.791 161.973 116.4C162.247 117.009 164.195 116.035 164.195 120.143C164.195 124.251 161.978 127.921 161.978 127.921C161.978 127.921 162.14 121.01 158.527 120.311C154.913 119.611 151.026 117.572 150.085 120.189C149.577 121.658 148.899 123.062 148.065 124.373Z" fill="#2F2E41"/>
<path d="M98.8955 209.599C97.1832 211.023 94.1649 218.025 94.1649 218.025C95.1307 218.127 96.1028 218.158 97.0732 218.117L96.7335 216.258L97.996 218.043C98.4885 217.99 98.9751 217.891 99.4494 217.748L98.9266 214.887L100.559 217.194C100.571 217.185 100.583 217.175 100.595 217.165C102.308 215.741 103.315 212.893 102.846 210.803C102.376 208.714 100.608 208.175 98.8955 209.599Z" fill="#615C9A"/>
<path d="M144.526 240.749C142.814 242.174 139.795 249.175 139.795 249.175C140.761 249.277 141.733 249.308 142.703 249.267L142.364 247.408L143.626 249.193C144.119 249.14 144.605 249.041 145.08 248.898L144.557 246.037L146.189 248.345C146.201 248.335 146.214 248.326 146.226 248.316C147.938 246.892 148.945 244.043 148.476 241.954C148.007 239.864 146.238 239.325 144.526 240.749Z" fill="#615C9A"/>
<path d="M137.824 175.328C136.366 176.85 133.419 183.879 133.419 183.879C134.177 183.896 134.936 183.844 135.685 183.723L135.575 181.953L136.413 183.574C136.813 183.477 137.202 183.341 137.574 183.166L137.405 180.442L138.488 182.537C138.498 182.527 138.509 182.517 138.519 182.506C139.977 180.984 141.004 178.143 140.812 176.16C140.62 174.178 139.283 173.805 137.824 175.328Z" fill="#615C9A"/>
<path d="M101.209 264.341C99.1786 263.782 91.6081 264.537 91.6081 264.537C91.9546 265.213 92.3619 265.856 92.825 266.459L94.3255 265.518L93.3032 267.029C93.5782 267.335 93.8834 267.613 94.2143 267.857L96.5236 266.41L95.2018 268.362C95.2157 268.367 95.2296 268.371 95.2436 268.375C97.2743 268.934 100.256 268.484 101.903 267.37C103.551 266.256 103.24 264.9 101.209 264.341Z" fill="#3F3D56"/>
<path d="M106.789 261.146C104.758 260.587 97.1873 261.342 97.1873 261.342C97.5339 262.018 97.9412 262.661 98.4043 263.264L99.9047 262.323L98.8824 263.834C99.1574 264.14 99.4627 264.418 99.7936 264.662L102.103 263.215L100.781 265.168C100.795 265.172 100.809 265.176 100.823 265.18C102.854 265.739 105.835 265.289 107.483 264.175C109.13 263.061 108.819 261.705 106.789 261.146Z" fill="#3F3D56"/>
<path d="M166.168 273.726C164.137 273.167 156.567 273.922 156.567 273.922C156.913 274.598 157.32 275.241 157.783 275.844L159.284 274.903L158.262 276.414C158.537 276.72 158.842 276.998 159.173 277.242L161.482 275.795L160.16 277.748C160.174 277.752 160.188 277.756 160.202 277.76C162.233 278.319 165.214 277.869 166.862 276.755C168.509 275.641 168.198 274.285 166.168 273.726Z" fill="#3F3D56"/>
<path d="M106.789 269.333C104.758 268.774 97.1873 269.529 97.1873 269.529C97.5339 270.205 97.9412 270.848 98.4043 271.451L99.9047 270.51L98.8824 272.021C99.1574 272.327 99.4627 272.605 99.7936 272.849L102.103 271.402L100.781 273.355C100.795 273.359 100.809 273.363 100.823 273.367C102.854 273.926 105.835 273.476 107.483 272.362C109.13 271.248 108.819 269.892 106.789 269.333Z" fill="#3F3D56"/>
<path d="M192.344 198.402C191.722 199.359 191.327 201.773 191.091 203.87L192.263 205.122L191.006 204.676C190.851 206.245 190.79 207.47 190.79 207.47C190.79 207.47 195.836 206.375 197.032 204.533C198.228 202.691 198.148 199.826 196.853 198.132C195.558 196.439 193.539 196.56 192.344 198.402Z" fill="#615C9A"/>
<path d="M197.594 233.747C197.025 234.705 196.662 237.119 196.446 239.216L197.518 240.467L196.368 240.022C196.226 241.591 196.17 242.816 196.17 242.816C196.17 242.816 200.79 241.719 201.885 239.877C202.98 238.035 202.908 235.169 201.723 233.477C200.538 231.784 198.69 231.905 197.594 233.747Z" fill="#615C9A"/>
<path d="M172.316 136.381C172.316 136.381 178.245 135.348 179.534 143.098C180.823 150.848 184.174 166.09 184.174 166.09L183.254 189.346L174.636 186.498L174.894 168.673L170.511 142.065L172.316 136.381Z" fill="#D0CDE1"/>
<path opacity="0.15" d="M170.125 146.844L173.476 168.802L172.702 187.403L176.312 169.319L170.125 146.844Z" fill="black"/>
<path d="M196.532 128.728C194.82 130.152 191.802 137.153 191.802 137.153C192.768 137.256 193.74 137.286 194.71 137.246L194.37 135.387L195.633 137.171C196.125 137.118 196.612 137.02 197.086 136.876L196.564 134.015L198.196 136.323C198.208 136.313 198.22 136.304 198.232 136.294C199.944 134.87 200.952 132.021 200.483 129.932C200.013 127.842 198.245 127.303 196.532 128.728Z" fill="#615C9A"/>
</g>
<defs>
<linearGradient id="paint0_linear" x1="119.186" y1="136" x2="119.186" y2="61.2636" gradientUnits="userSpaceOnUse">
<stop stop-color="#808080" stop-opacity="0.25"/>
<stop offset="0.54" stop-color="#808080" stop-opacity="0.12"/>
<stop offset="1" stop-color="#808080" stop-opacity="0.1"/>
</linearGradient>
<linearGradient id="paint1_linear" x1="8029.67" y1="1460.65" x2="8029.67" y2="689.402" gradientUnits="userSpaceOnUse">
<stop stop-color="#808080" stop-opacity="0.25"/>
<stop offset="0.54" stop-color="#808080" stop-opacity="0.12"/>
<stop offset="1" stop-color="#808080" stop-opacity="0.1"/>
</linearGradient>
<linearGradient id="paint2_linear" x1="6725.11" y1="7584.18" x2="6725.11" y2="1797.78" gradientUnits="userSpaceOnUse">
<stop stop-color="#808080" stop-opacity="0.25"/>
<stop offset="0.54" stop-color="#808080" stop-opacity="0.12"/>
<stop offset="1" stop-color="#808080" stop-opacity="0.1"/>
</linearGradient>
<linearGradient id="paint3_linear" x1="13609.2" y1="6492.86" x2="13609.2" y2="2244.84" gradientUnits="userSpaceOnUse">
<stop stop-color="#808080" stop-opacity="0.25"/>
<stop offset="0.54" stop-color="#808080" stop-opacity="0.12"/>
<stop offset="1" stop-color="#808080" stop-opacity="0.1"/>
</linearGradient>
<linearGradient id="paint4_linear" x1="61.1191" y1="90.9183" x2="61.1191" y2="90.5718" gradientUnits="userSpaceOnUse">
<stop stop-color="#808080" stop-opacity="0.25"/>
<stop offset="0.53514" stop-color="#808080" stop-opacity="0.12"/>
<stop offset="1" stop-color="#808080" stop-opacity="0.1"/>
</linearGradient>
<linearGradient id="paint5_linear" x1="86.5497" y1="221.971" x2="86.5497" y2="221.496" gradientUnits="userSpaceOnUse">
<stop stop-color="#808080" stop-opacity="0.25"/>
<stop offset="0.53514" stop-color="#808080" stop-opacity="0.12"/>
<stop offset="1" stop-color="#808080" stop-opacity="0.1"/>
</linearGradient>
<linearGradient id="paint6_linear" x1="1843.41" y1="4999.46" x2="1843.41" y2="4705.75" gradientUnits="userSpaceOnUse">
<stop stop-color="#808080" stop-opacity="0.25"/>
<stop offset="0.53514" stop-color="#808080" stop-opacity="0.12"/>
<stop offset="1" stop-color="#808080" stop-opacity="0.1"/>
</linearGradient>
<clipPath id="clip0">
<rect width="60" height="80" fill="white" transform="translate(89 56)"/>
</clipPath>
<clipPath id="clip1">
<rect width="272" height="217" fill="white"/>
</clipPath>
<clipPath id="clip2">
<rect width="152" height="132" fill="white" transform="translate(105 14)"/>
</clipPath>
<clipPath id="clip3">
<rect width="219" height="165" fill="white" transform="translate(54 113)"/>
</clipPath>
</defs>
</svg>
