<svg width="110" height="32" viewBox="0 0 110 32" fill="none" xmlns="http://www.w3.org/2000/svg">
<g filter="url(#filter0_di)">
<path d="M22.734 25H19.863L16.86 17.542L13.857 25H10.986L4.32 8.5H7.554L12.405 20.545L15.243 13.582L13.197 8.5H16.431L21.282 20.545L26.133 8.5H29.334L22.734 25ZM33.1726 18.004C33.1726 18.532 33.3596 19.082 33.7336 19.654C34.1296 20.226 34.5806 20.71 35.0866 21.106C36.0106 21.832 37.0886 22.195 38.3206 22.195C40.2786 22.195 41.8736 21.249 43.1056 19.357L45.6136 20.842C44.7556 22.228 43.6996 23.295 42.4456 24.043C41.1916 24.791 39.8166 25.165 38.3206 25.165C37.1986 25.165 36.1316 24.956 35.1196 24.538C34.1076 24.098 33.2166 23.493 32.4466 22.723C31.6766 21.953 31.0716 21.062 30.6316 20.05C30.2136 19.038 30.0046 17.971 30.0046 16.849C30.0046 15.727 30.2136 14.66 30.6316 13.648C31.0716 12.614 31.6766 11.712 32.4466 10.942C33.1946 10.172 34.0746 9.578 35.0866 9.16C36.1206 8.742 37.1986 8.533 38.3206 8.533C39.4426 8.533 40.5096 8.742 41.5216 9.16C42.5556 9.578 43.4466 10.172 44.1946 10.942C45.8226 12.614 46.6366 14.55 46.6366 16.75C46.6366 17.146 46.6036 17.564 46.5376 18.004H33.1726ZM38.3206 11.239C37.4186 11.239 36.5716 11.437 35.7796 11.833C34.9876 12.229 34.3496 12.757 33.8656 13.417C33.4036 14.055 33.1726 14.737 33.1726 15.463H43.4686C43.4686 14.737 43.2266 14.055 42.7426 13.417C42.2806 12.757 41.6536 12.229 40.8616 11.833C40.0696 11.437 39.2226 11.239 38.3206 11.239ZM62.6488 25V22.492C61.9448 23.306 61.1308 23.955 60.2068 24.439C59.2828 24.923 58.3038 25.165 57.2698 25.165C56.1258 25.165 55.0478 24.956 54.0358 24.538C53.0458 24.12 52.1658 23.526 51.3958 22.756C50.6258 22.008 50.0208 21.128 49.5808 20.116C49.1628 19.082 48.9538 18.004 48.9538 16.882C48.9538 15.76 49.1628 14.693 49.5808 13.681C50.0208 12.647 50.6258 11.745 51.3958 10.975C52.1658 10.205 53.0458 9.611 54.0358 9.193C55.0478 8.775 56.1258 8.566 57.2698 8.566C58.3258 8.566 59.3158 8.786 60.2398 9.226C61.1858 9.666 61.9888 10.282 62.6488 11.074V8.896H65.6188V25H62.6488ZM57.2698 11.503C56.5438 11.503 55.8398 11.646 55.1578 11.932C54.4978 12.196 53.9258 12.57 53.4418 13.054C52.9578 13.538 52.5728 14.121 52.2868 14.803C52.0228 15.463 51.8908 16.156 51.8908 16.882C51.8908 17.608 52.0228 18.301 52.2868 18.961C52.5728 19.621 52.9578 20.193 53.4418 20.677C53.9258 21.161 54.4978 21.546 55.1578 21.832C55.8398 22.096 56.5438 22.228 57.2698 22.228C57.9958 22.228 58.6888 22.096 59.3488 21.832C60.0088 21.546 60.5808 21.161 61.0648 20.677C61.5488 20.193 61.9228 19.621 62.1868 18.961C62.4728 18.301 62.6158 17.608 62.6158 16.882C62.6158 16.156 62.4728 15.463 62.1868 14.803C61.9228 14.121 61.5488 13.538 61.0648 13.054C60.5808 12.57 60.0088 12.196 59.3488 11.932C58.6888 11.646 57.9958 11.503 57.2698 11.503ZM73.8598 11.47V25H71.0548V11.47H68.5798V8.5H71.0548V3.055H73.8598V8.5H76.3348V11.47H73.8598ZM89.5159 25V14.869C89.5159 13.835 89.1529 12.955 88.4269 12.229C88.0969 11.899 87.7009 11.635 87.2389 11.437C86.7989 11.239 86.3479 11.14 85.8859 11.14C84.8959 11.14 84.0379 11.503 83.3119 12.229C82.5859 12.955 82.2229 13.835 82.2229 14.869V25H79.3189V2.989H82.2229V9.655C83.2789 8.665 84.4999 8.17 85.8859 8.17C86.7659 8.17 87.6019 8.346 88.3939 8.698C89.1859 9.028 89.8899 9.501 90.5059 10.117C91.0999 10.733 91.5619 11.459 91.8919 12.295C92.2439 13.109 92.4199 13.967 92.4199 14.869V25H89.5159ZM103.081 11.668C102.553 11.426 102.08 11.305 101.662 11.305C100.782 11.305 100.056 11.613 99.4843 12.229C98.8683 12.889 98.5603 13.648 98.5603 14.506V25H95.7223V14.506C95.7223 13.318 96.0193 12.229 96.6133 11.239C97.2293 10.249 98.0653 9.479 99.1213 8.929C99.9133 8.555 100.76 8.368 101.662 8.368C102.388 8.368 103.081 8.5 103.741 8.764C104.401 9.028 105.094 9.457 105.82 10.051L103.081 11.668Z" fill="white"/>
</g>
<defs>
<filter id="filter0_di" x="0.320007" y="0.988983" width="109.5" height="30.176" filterUnits="userSpaceOnUse" color-interpolation-filters="sRGB">
<feFlood flood-opacity="0" result="BackgroundImageFix"/>
<feColorMatrix in="SourceAlpha" type="matrix" values="0 0 0 0 0 0 0 0 0 0 0 0 0 0 0 0 0 0 127 0"/>
<feOffset dy="2"/>
<feGaussianBlur stdDeviation="2"/>
<feColorMatrix type="matrix" values="0 0 0 0 0 0 0 0 0 0 0 0 0 0 0 0 0 0 0.25 0"/>
<feBlend mode="normal" in2="BackgroundImageFix" result="effect1_dropShadow"/>
<feBlend mode="normal" in="SourceGraphic" in2="effect1_dropShadow" result="shape"/>
<feColorMatrix in="SourceAlpha" type="matrix" values="0 0 0 0 0 0 0 0 0 0 0 0 0 0 0 0 0 0 127 0" result="hardAlpha"/>
<feOffset dy="-1"/>
<feGaussianBlur stdDeviation="0.5"/>
<feComposite in2="hardAlpha" operator="arithmetic" k2="-1" k3="1"/>
<feColorMatrix type="matrix" values="0 0 0 0 0 0 0 0 0 0 0 0 0 0 0 0 0 0 0.07 0"/>
<feBlend mode="normal" in2="shape" result="effect2_innerShadow"/>
</filter>
</defs>
</svg>
